<svg xmlns="http://www.w3.org/2000/svg" version="1.1" xmlns:xlink="http://www.w3.org/1999/xlink" xmlns:svgjs="http://svgjs.dev/svgjs" width="1500" height="655" viewBox="0 0 1500 655"><g transform="matrix(1,0,0,1,-0.9090909090909918,-0.8110569372902887)"><svg viewBox="0 0 396 173" data-background-color="#ffffff" preserveAspectRatio="xMidYMid meet" height="655" width="1500" xmlns="http://www.w3.org/2000/svg" xmlns:xlink="http://www.w3.org/1999/xlink"><g id="tight-bounds" transform="matrix(1,0,0,1,0.2400000000000091,0.21421809183392782)"><svg viewBox="0 0 395.52 172.57156381633214" height="172.57156381633214" width="395.52"><g><svg viewBox="0 0 395.52 172.57156381633214" height="172.57156381633214" width="395.52"><g><svg viewBox="0 0 395.52 172.57156381633214" height="172.57156381633214" width="395.52"><g id="textblocktransform"><svg viewBox="0 0 395.52 172.57156381633214" height="172.57156381633214" width="395.52" id="textblock"><g><svg viewBox="0 0 395.52 172.57156381633214" height="172.57156381633214" width="395.52"><g transform="matrix(1,0,0,1,0,0)"><svg width="395.52" viewBox="1.5900000000000016 -35.16 180.44 74.49000000000001" height="172.57156381633214" data-palette-color="#0c0a0f"><svg></svg><svg></svg><g class="wordmark-text-0" data-fill-palette-color="primary" id="text-0"><path d="M16.55-19.58l9.77-15.53h5.22l-12.69 19.29v15.82h-4.57v-15.82l-12.69-19.29h5.22zM38.72-20.9v0l-1.07-3.42c2.733-1.087 5.597-1.63 8.59-1.63v0c2.62 0 4.623 0.44 6.01 1.32v0c1.573 1.007 2.36 2.723 2.36 5.15v0 9.98c0 1.333 0.017 2.7 0.05 4.1v0c0.02 0.833 0.103 1.697 0.25 2.59v0c0.127 0.847 0.297 1.653 0.51 2.42v0l-4 0.88c-0.38-1.093-0.617-2.313-0.71-3.66v0l-0.49-0.05c-2.02 2.54-4.593 3.81-7.72 3.81v0c-2.273 0-4.103-0.633-5.49-1.9-1.38-1.26-2.07-3.037-2.07-5.33v0c0-1.707 0.377-3.107 1.13-4.2 0.76-1.093 1.83-2.013 3.21-2.76v0c2.18-1.187 5.233-1.78 9.16-1.78v0c0.52 0 1.22 0.017 2.1 0.05v0-3.71c0-1.173-0.36-2.02-1.08-2.54-0.713-0.52-1.837-0.78-3.37-0.78v0c-2.227 0-4.683 0.487-7.37 1.46zM50.54-7.13v0-5.13c-0.44-0.027-1.083-0.04-1.93-0.04v0c-1.433 0-2.753 0.12-3.96 0.36v0c-1.787 0.36-3.173 0.927-4.16 1.7-0.987 0.773-1.48 1.883-1.48 3.33v0c0 2.607 1.417 3.91 4.25 3.91v0c1.467 0 2.833-0.39 4.1-1.17v0c1.047-0.653 2.107-1.64 3.18-2.96zM62.82 0v-35.16h4.2v15.31c1.087-1.853 2.323-3.3 3.71-4.34v0c1.58-1.173 3.15-1.76 4.71-1.76v0c2.347 0 4.17 0.587 5.47 1.76v0c1.12 1.007 1.893 2.527 2.32 4.56v0c0.327 1.547 0.49 3.63 0.49 6.25v0 13.38h-4.2v-14.55c0-0.993-0.027-1.81-0.08-2.45-0.047-0.647-0.163-1.323-0.35-2.03-0.187-0.707-0.457-1.26-0.81-1.66-0.347-0.4-0.833-0.73-1.46-0.99-0.627-0.26-1.387-0.39-2.28-0.39v0c-1.547 0-3.037 0.733-4.47 2.2v0c-0.913 0.927-1.93 2.34-3.05 4.24v0 15.63zM92.43-20.9v0l-1.07-3.42c2.733-1.087 5.597-1.63 8.59-1.63v0c2.62 0 4.623 0.44 6.01 1.32v0c1.58 1.007 2.37 2.723 2.37 5.15v0 9.98c0 1.333 0.013 2.7 0.04 4.1v0c0.02 0.833 0.103 1.697 0.25 2.59v0c0.127 0.847 0.297 1.653 0.51 2.42v0l-4 0.88c-0.373-1.093-0.61-2.313-0.71-3.66v0l-0.49-0.05c-2.02 2.54-4.59 3.81-7.71 3.81v0c-2.28 0-4.113-0.633-5.5-1.9-1.38-1.26-2.07-3.037-2.07-5.33v0c0-1.707 0.377-3.107 1.13-4.2 0.76-1.093 1.83-2.013 3.21-2.76v0c2.18-1.187 5.233-1.78 9.16-1.78v0c0.52 0 1.22 0.017 2.1 0.05v0-3.71c0-1.173-0.36-2.02-1.08-2.54-0.713-0.52-1.837-0.78-3.37-0.78v0c-2.227 0-4.683 0.487-7.37 1.46zM104.25-7.13v0-5.13c-0.44-0.027-1.083-0.04-1.93-0.04v0c-1.433 0-2.753 0.12-3.96 0.36v0c-1.787 0.36-3.173 0.927-4.16 1.7-0.987 0.773-1.48 1.883-1.48 3.33v0c0 2.607 1.417 3.91 4.25 3.91v0c1.467 0 2.833-0.39 4.1-1.17v0c1.047-0.653 2.107-1.64 3.18-2.96zM131.45-25.39h4.54l-8.45 25.39h-5.62l-8.44-25.39h4.54l6.71 22.17z" fill="#0c0a0f" fill-rule="nonzero" stroke="none" stroke-width="1" stroke-linecap="butt" stroke-linejoin="miter" stroke-miterlimit="10" stroke-dasharray="" stroke-dashoffset="0" font-family="none" font-weight="none" font-size="none" text-anchor="none" style="mix-blend-mode: normal" data-fill-palette-color="primary" opacity="1"></path><path d="M11.87 38.74h-7.43v-35.11h7.43c2 0 3.857 0.103 5.57 0.31 1.72 0.2 3.297 0.553 4.73 1.06v0c1.433 0.507 2.69 1.177 3.77 2.01 1.08 0.84 2.013 1.91 2.8 3.21v0c0.76 1.307 1.337 2.853 1.73 4.64 0.387 1.793 0.58 3.903 0.58 6.33v0c0 2.42-0.193 4.527-0.58 6.32-0.393 1.793-0.97 3.34-1.73 4.64v0c-0.787 1.3-1.72 2.37-2.8 3.21-1.08 0.84-2.337 1.51-3.77 2.01v0c-1.433 0.507-3.01 0.86-4.73 1.06-1.713 0.207-3.57 0.31-5.57 0.31zM9.03 34.98h3.59c2.493 0 4.607-0.247 6.34-0.74 1.733-0.5 3.153-1.31 4.26-2.43v0c1.087-1.127 1.88-2.557 2.38-4.29 0.493-1.733 0.74-3.843 0.74-6.33v0c0-2.493-0.247-4.607-0.74-6.34-0.5-1.733-1.293-3.16-2.38-4.28v0c-1.107-1.127-2.527-1.937-4.26-2.43-1.733-0.5-3.847-0.75-6.34-0.75v0h-3.59zM55.47 34.03l1.22 3.29c-1.807 0.72-3.503 1.233-5.09 1.54-1.587 0.313-3.007 0.47-4.26 0.47v0c-1.92 0-3.597-0.307-5.03-0.92-1.433-0.613-2.627-1.473-3.58-2.58-0.953-1.107-1.67-2.427-2.15-3.96-0.48-1.54-0.72-3.237-0.72-5.09v0c0-1.14 0.083-2.28 0.25-3.42 0.16-1.14 0.42-2.227 0.78-3.26 0.36-1.033 0.827-1.997 1.4-2.89 0.58-0.9 1.287-1.673 2.12-2.32 0.827-0.653 1.793-1.167 2.9-1.54 1.107-0.373 2.367-0.56 3.78-0.56v0c3.633 0 6.37 1.133 8.21 3.4 1.84 2.273 2.76 5.527 2.76 9.76v0 1.34h-17.87c0 1.367 0.147 2.577 0.44 3.63 0.287 1.047 0.737 1.933 1.35 2.66 0.613 0.72 1.387 1.267 2.32 1.64 0.933 0.38 2.043 0.57 3.33 0.57v0c0.72 0 1.433-0.053 2.14-0.16 0.707-0.107 1.393-0.247 2.06-0.42 0.667-0.167 1.307-0.357 1.92-0.57 0.607-0.213 1.18-0.417 1.72-0.61zM40.31 23.92h13.52c-0.127-2.633-0.757-4.557-1.89-5.77-1.133-1.213-2.75-1.82-4.85-1.82v0c-2.093 0-3.69 0.607-4.79 1.82-1.1 1.213-1.763 3.137-1.99 5.77zM85.6 38.3v0l-4.06 0.9c-0.307-0.973-0.527-1.917-0.66-2.83v0c-0.06-0.42-0.14-1.283-0.24-2.59v0h-0.51c-0.9 1.647-2.007 2.957-3.32 3.93v0c-1.453 1.08-2.983 1.62-4.59 1.62v0c-2.427 0-4.277-0.587-5.55-1.76v0c-1.087-0.993-1.843-2.517-2.27-4.57v0c-0.273-1.4-0.41-3.483-0.41-6.25v0-13.4h4.2v14.57c0 2.427 0.237 4.16 0.71 5.2v0c0.7 1.547 2.107 2.32 4.22 2.32v0c1.5 0 2.963-0.713 4.39-2.14v0c0.967-0.96 1.993-2.37 3.08-4.23v0-15.72h4.2v15.67c0 2.167 0.057 4.047 0.17 5.64v0c0.067 0.993 0.28 2.207 0.64 3.64zM95.12 13.35v-5.81h4.2v5.81h8.54v3.54h-8.54v14.57c0 0.98 0.027 1.727 0.08 2.24 0.06 0.513 0.203 0.917 0.43 1.21v0c0.42 0.587 1.273 0.88 2.56 0.88v0c0.72 0 1.413-0.073 2.08-0.22v0c0.68-0.147 1.307-0.31 1.88-0.49v0c0.453 0.993 0.867 2.083 1.24 3.27v0c-1.92 0.653-3.857 0.98-5.81 0.98v0c-1.413 0-2.547-0.16-3.4-0.48-0.86-0.32-1.533-0.837-2.02-1.55v0c-0.5-0.747-0.833-1.643-1-2.69-0.16-1.04-0.24-2.48-0.24-4.32v0-13.4h-3.66v-3.54zM121.44 12.79v0c1.333 0 2.67 0.137 4.01 0.41 1.347 0.28 2.597 0.663 3.75 1.15v0c-0.227 0.52-0.463 1.033-0.71 1.54-0.24 0.507-0.507 1.003-0.8 1.49v0c-0.407-0.167-0.86-0.33-1.36-0.49-0.493-0.16-1.013-0.3-1.56-0.42-0.547-0.113-1.11-0.207-1.69-0.28-0.573-0.073-1.137-0.11-1.69-0.11v0c-0.607 0-1.19 0.063-1.75 0.19-0.56 0.12-1.057 0.317-1.49 0.59-0.433 0.28-0.78 0.643-1.04 1.09-0.26 0.447-0.39 1.003-0.39 1.67v0c0 0.687 0.147 1.26 0.44 1.72 0.293 0.467 0.693 0.853 1.2 1.16 0.507 0.313 1.097 0.577 1.77 0.79 0.673 0.207 1.393 0.4 2.16 0.58v0c1.187 0.293 2.293 0.623 3.32 0.99 1.027 0.367 1.913 0.843 2.66 1.43 0.747 0.587 1.333 1.31 1.76 2.17 0.42 0.867 0.63 1.933 0.63 3.2v0c0 1.333-0.263 2.48-0.79 3.44-0.527 0.96-1.243 1.753-2.15 2.38-0.9 0.627-1.953 1.09-3.16 1.39-1.207 0.307-2.493 0.46-3.86 0.46v0c-0.713 0-1.45-0.047-2.21-0.14-0.753-0.087-1.5-0.217-2.24-0.39-0.74-0.173-1.47-0.38-2.19-0.62-0.713-0.247-1.387-0.517-2.02-0.81v0c0.227-0.52 0.467-1.027 0.72-1.52 0.247-0.5 0.51-0.993 0.79-1.48v0c0.54 0.227 1.11 0.443 1.71 0.65 0.6 0.2 1.217 0.373 1.85 0.52 0.64 0.147 1.267 0.267 1.88 0.36 0.62 0.087 1.217 0.13 1.79 0.13v0c0.713 0 1.407-0.08 2.08-0.24 0.68-0.167 1.283-0.423 1.81-0.77 0.527-0.353 0.95-0.807 1.27-1.36 0.32-0.553 0.48-1.22 0.48-2v0c0-0.733-0.153-1.337-0.46-1.81-0.3-0.467-0.7-0.86-1.2-1.18-0.507-0.32-1.097-0.58-1.77-0.78-0.68-0.207-1.393-0.4-2.14-0.58v0c-1.14-0.273-2.22-0.59-3.24-0.95-1.013-0.36-1.9-0.827-2.66-1.4-0.753-0.58-1.353-1.297-1.8-2.15-0.447-0.853-0.67-1.917-0.67-3.19v0c0-1.187 0.243-2.21 0.73-3.07 0.487-0.867 1.14-1.577 1.96-2.13 0.827-0.553 1.78-0.963 2.86-1.23 1.08-0.267 2.217-0.4 3.41-0.4zM153.91 34.42l1.05 3.42c-1.273 0.44-2.63 0.797-4.07 1.07-1.44 0.28-2.803 0.42-4.09 0.42v0c-1.953 0-3.647-0.287-5.08-0.86-1.427-0.567-2.61-1.397-3.55-2.49-0.933-1.087-1.63-2.423-2.09-4.01-0.453-1.593-0.68-3.407-0.68-5.44v0c0-2.213 0.28-4.173 0.84-5.88 0.56-1.707 1.373-3.143 2.44-4.31 1.067-1.167 2.37-2.05 3.91-2.65 1.54-0.6 3.287-0.9 5.24-0.9v0c0.993 0 2 0.1 3.02 0.3 1.027 0.207 2.07 0.463 3.13 0.77v0l-1.05 3.42c-0.847-0.28-1.633-0.5-2.36-0.66-0.72-0.16-1.48-0.24-2.28-0.24v0c-2.767 0-4.9 0.8-6.4 2.4-1.493 1.607-2.24 4.027-2.24 7.26v0c0 1.52 0.11 2.877 0.33 4.07 0.22 1.193 0.61 2.21 1.17 3.05 0.56 0.84 1.323 1.48 2.29 1.92 0.973 0.44 2.207 0.66 3.7 0.66v0c0.98 0 2.037-0.127 3.17-0.38 1.127-0.253 2.327-0.567 3.6-0.94zM161.13 38.74v-35.16h4.2v15.31c1.093-1.853 2.33-3.3 3.71-4.34v0c1.58-1.173 3.15-1.76 4.71-1.76v0c2.347 0 4.17 0.587 5.47 1.76v0c1.127 1.007 1.9 2.527 2.32 4.56v0c0.327 1.547 0.49 3.63 0.49 6.25v0 13.38h-4.2v-14.55c0-0.993-0.023-1.81-0.07-2.45-0.047-0.647-0.167-1.323-0.36-2.03-0.187-0.707-0.453-1.26-0.8-1.66-0.353-0.4-0.843-0.73-1.47-0.99-0.627-0.26-1.387-0.39-2.28-0.39v0c-1.547 0-3.037 0.733-4.47 2.2v0c-0.907 0.927-1.923 2.34-3.05 4.24v0 15.63z" fill="#0c0a0f" fill-rule="nonzero" stroke="none" stroke-width="1" stroke-linecap="butt" stroke-linejoin="miter" stroke-miterlimit="10" stroke-dasharray="" stroke-dashoffset="0" font-family="none" font-weight="none" font-size="none" text-anchor="none" style="mix-blend-mode: normal" data-fill-palette-color="primary" opacity="1"></path></g></svg></g></svg></g></svg></g></svg></g></svg></g><defs></defs></svg><rect width="395.52" height="172.57156381633214" fill="none" stroke="none" visibility="hidden"></rect></g></svg></g></svg>